#!OML:ASF F:\VICON\USERDATA\INSTALL\Justin_Nancy\Justin_Nancy.ASF
:FULLY-SPECIFIED
:DEGREES
97
root 1.7929 17.0794 -10.1099 -2.56631 -3.48774 8.74213
lowerback 6.91463 -1.04984 -7.25525
upperback -0.0342099 -1.95851 0.652789
thorax -3.65594 -0.836041 4.95355
lowerneck -16.4507 -2.14962 -9.47068
upperneck 22.6228 -1.18207 3.0143
head 10.0147 -1.01982 2.48535
rclavicle 1.49089e-015 -1.59028e-014
rhumerus -39.2404 -14.1428 -76.0618
rradius 28.3148
rwrist 9.33223
rhand -14.3364 17.0191
rfingers 7.12502
rthumb 11.8048 -12.6282
lclavicle 1.49089e-015 -1.59028e-014
lhumerus -28.0906 7.72937 83.8746
lradius 29.3601
lwrist -7.70988
lhand -16.9202 23.568
lfingers 7.12502
lthumb 9.31239 53.3423
rfemur -34.8174 0.597934 12.407
rtibia 41.7467
rfoot -9.02822 -8.74388
rtoes -5.75634
lfemur 2.76185 -1.79514 -33.7317
ltibia 25.5548
lfoot -20.011 4.67949
ltoes -1.54619
98
root 1.76951 17.0633 -9.87393 -2.391 -3.14388 8.66269
lowerback 6.87324 -1.15297 -7.31129
upperback 0.0198294 -2.09153 0.74194
thorax -3.55242 -0.90622 5.0881
lowerneck -16.5594 -2.1813 -9.44383
upperneck 22.3276 -1.22664 3.03701
head 9.93213 -1.02713 2.47896
rclavicle 1.02126e-014 4.77083e-015
rhumerus -39.8036 -14.3571 -75.85
rradius 28.4261
rwrist 9.21015
rhand -14.5192 16.9061
rfingers 7.12502
rthumb 11.6285 -12.7512
lclavicle 1.02126e-014 4.77083e-015
lhumerus -27.6438 7.06957 83.9866
lradius 30.1409
lwrist -7.30124
lhand -15.6948 24.7518
lfingers 7.12502
lthumb 10.4946 54.4699
rfemur -34.6256 0.90448 12.2552
rtibia 37.9532
rfoot -8.64354 -9.64869
rtoes -8.74056
lfemur 4.01586 -1.54336 -33.5544
ltibia 24.4601
lfoot -20.1108 4.37812
ltoes -1.71483
99
root 1.74747 17.0512 -9.63538 -2.15533 -2.60198 8.53336
lowerback 6.8649 -1.32091 -7.22093
upperback -0.0500008 -2.30772 0.797394
thorax -3.59144 -1.01124 5.11546
lowerneck -16.3875 -2.24389 -9.44738
upperneck 21.9227 -1.34777 3.10418
head 9.76407 -1.06654 2.48214
rclavicle -1.14301e-015 -3.10104e-014
rhumerus -40.5725 -14.5871 -75.5937
rradius 28.5002
rwrist 9.03878
rhand -14.3715 16.9778
rfingers 7.12502
rthumb 11.7709 -12.6714
lclavicle -1.14301e-015 -3.10104e-014
lhumerus -27.3139 6.41939 84.0401
lradius 30.7773
lwrist -6.40132
lhand -17.8488 21.8823
lfingers 7.12502
lthumb 8.41622 51.6946
rfemur -34.2823 1.22299 11.9723
rtibia 34.111
rfoot -8.56499 -10.3446
rtoes -9.15781
lfemur 5.23373 -1.43865 -33.3144
ltibia 23.3988
lfoot -19.4978 4.17112
ltoes -3.62881
100
root 1.72971 17.0441 -9.3929 -1.98012 -2.04544 8.6665
lowerback 6.82109 -1.52138 -7.32013
upperback -0.107187 -2.58339 0.742171
thorax -3.5864 -1.14548 5.13664
lowerneck -16.4453 -2.216 -9.40364
upperneck 21.9171 -1.35398 3.26407
head 9.77235 -1.04688 2.53056
rclavicle -1.85118e-014 1.59028e-015
rhumerus -41.0498 -15.4387 -75.0307
rradius 27.7016
rwrist 9.48363
rhand -14.3391 16.9345
rfingers 7.12502
rthumb 11.8021 -12.7129
lclavicle -1.85118e-014 1.59028e-015
lhumerus -26.9284 5.92585 83.9434
lradius 31.2268
lwrist -5.88886
lhand -19.3552 20.977
lfingers 7.12502
lthumb 6.96232 50.8425
rfemur -33.7718 1.51184 11.3214
rtibia 30.2535
rfoot -8.46393 -10.8711
rtoes -10.6025
lfemur 6.57594 -1.32323 -33.3453
ltibia 22.3828
lfoot -19.5454 3.7436
ltoes -3.64164
101
root 1.70762 17.0315 -9.15482 -1.83193 -1.67944 8.68598
lowerback 6.84931 -1.68208 -7.43393
upperback -0.138599 -2.80721 0.815646
thorax -3.59471 -1.25284 5.29902
lowerneck -16.5965 -2.15561 -9.50606
upperneck 21.9745 -1.26176 3.41224
head 9.81556 -0.996077 2.61301
rclavicle -3.74212e-014 -1.11319e-014
rhumerus -41.3364 -16.4596 -74.2487
rradius 26.636
rwrist 10.4775
rhand -14.7045 15.347
rfingers 7.12502
rthumb 11.4497 -14.3204
lclavicle -3.74212e-014 -1.11319e-014
lhumerus -26.478 5.75482 83.9103
lradius 31.5689
lwrist -5.7986
lhand -18.1811 22.9843
lfingers 7.12502
lthumb 8.09551 52.8092
rfemur -33.2551 1.98629 10.8028
rtibia 26.4106
rfoot -8.47406 -11.6273
rtoes -9.08366
lfemur 7.91349 -1.21215 -33.2262
ltibia 21.4142
lfoot -20.1714 3.20897
ltoes -1.62131
102
root 1.67912 17.0176 -8.91619 -1.55882 -1.24145 8.51172
lowerback 6.65803 -1.83133 -7.46814
upperback -0.0988213 -2.98556 0.978962
thorax -3.40912 -1.34908 5.49417
lowerneck -16.8855 -2.21928 -9.43466
upperneck 21.9429 -1.30925 3.29385
head 9.86118 -1.023 2.55216
rclavicle 1.08835e-014 2.78299e-014
rhumerus -41.6531 -17.3395 -73.568
rradius 26.1965
rwrist 11.064
rhand -14.5324 13.8544
rfingers 7.12502
rthumb 11.6158 -15.8036
lclavicle 1.08835e-014 2.78299e-014
lhumerus -25.9713 5.33976 84.0179
lradius 32.1584
lwrist -5.46947
lhand -17.5719 23.06
lfingers 7.12502
lthumb 8.68352 52.8614
rfemur -32.7989 2.55222 10.4103
rtibia 22.7433
rfoot -9.04752 -12.4803
rtoes -5.83314
lfemur 9.07159 -1.27526 -32.844
ltibia 20.4072
lfoot -19.8871 2.64526
ltoes -3.1324
103
root 1.64633 17.0103 -8.67129 -1.15906 -0.625491 8.36627
lowerback 6.28768 -2.02952 -7.53479
upperback -0.0988824 -3.21961 1.12311
thorax -3.15432 -1.475 5.68193
lowerneck -17.1194 -2.31471 -9.35326
upperneck 21.8564 -1.41294 3.187
head 9.88058 -1.07285 2.48527
rclavicle 3.40916e-014 2.06736e-014
rhumerus -42.1668 -18.0234 -72.9687
rradius 26.0727
rwrist 11.1076
rhand -14.0996 13.5918
rfingers 7.12502
rthumb 12.033 -16.0423
lclavicle 3.40916e-014 2.06736e-014
lhumerus -25.4855 4.8898 84.0872
lradius 32.7521
lwrist -5.09592
lhand -18.6812 21.0684
lfingers 7.12502
lthumb 7.61287 50.9113
rfemur -32.2703 3.25022 9.83902
rtibia 19.1811
rfoot -9.01204 -13.4363
rtoes -4.56356
lfemur 10.0299 -1.56278 -32.4582
ltibia 19.5371
lfoot -19.754 1.88162
ltoes -5.30935
104
root 1.61945 16.9978 -8.42282 -0.91977 -0.0865905 8.51602
lowerback 6.2604 -2.15609 -7.7666
upperback -0.248402 -3.40874 1.12341
thorax -3.25401 -1.5563 5.83002
lowerneck -17.0511 -2.36453 -9.28635
upperneck 21.826 -1.49422 3.12852
head 9.86176 -1.11132 2.44215
rclavicle 3.49364e-014 1.19271e-014
rhumerus -43.0661 -18.4653 -72.3853
rradius 25.9998
rwrist 10.9651
rhand -13.897 12.9891
rfingers 7.12502
rthumb 12.2284 -16.6334
lclavicle 3.49364e-014 1.19271e-014
lhumerus -25.3936 4.37529 84.1012
lradius 33.4192
lwrist -4.77601
lhand -19.4991 22.0198
lfingers 7.12502
lthumb 6.82341 51.8899
rfemur -31.5376 3.45091 9.15048
rtibia 15.8598
rfoot -8.06085 -13.6206
rtoes -6.88975
lfemur 11.049 -1.87573 -32.4567
ltibia 18.8738
lfoot -19.5905 1.29565
ltoes -7.21877
105
root 1.59408 16.9834 -8.17445 -0.86839 0.415713 8.4828
lowerback 6.39406 -2.28546 -7.82226
upperback -0.38848 -3.59981 1.18215
thorax -3.43932 -1.63705 5.94963
lowerneck -16.6894 -2.37163 -9.30871
upperneck 21.6601 -1.54885 3.1791
head 9.73936 -1.13109 2.45511
rclavicle -2.57426e-014 -1.90833e-014
rhumerus -44.0001 -18.6337 -71.8825
rradius 25.9155
rwrist 11.1023
rhand -13.8918 12.3446
rfingers 7.12502
rthumb 12.2335 -17.2776
lclavicle -2.57426e-014 -1.90833e-014
lhumerus -25.4631 3.83701 84.1661
lradius 34.1106
lwrist -4.26382
lhand -18.9929 23.9898
lfingers 7.12502
lthumb 7.31196 53.8435
rfemur -30.6273 3.83345 8.65202
rtibia 13.018
rfoot -7.92525 -13.9226
rtoes -8.49657
lfemur 12.1609 -2.13625 -32.2498
ltibia 18.4079
lfoot -19.3259 0.748414
ltoes -8.44308
